HIERARCHY
ROOT Hips
{
	OFFSET -3.958830 18.904000 13.208200
	CHANNELS 6 Xposition Yposition Zposition Zrotation Yrotation Xrotation 
	JOINT LHipJoint
	{
		OFFSET 0.000000 0.000000 0.000000
		CHANNELS 3 Zrotation Yrotation Xrotation
		JOINT LeftUpLeg
		{
			OFFSET 1.800000 -1.400000 0.085000
			CHANNELS 3 Zrotation Yrotation Xrotation
			JOINT LeftLeg
			{
				OFFSET 2.215000 -6.000000 0.000000
				CHANNELS 3 Zrotation Yrotation Xrotation
				JOINT LeftFoot
				{
					OFFSET 2.500000 -6.900000 0.000000
					CHANNELS 3 Zrotation Yrotation Xrotation
					JOINT LeftToeBase
					{
						OFFSET 0.200000 -0.500000 1.950000
						CHANNELS 3 Zrotation Yrotation Xrotation
						End Site
						{
							OFFSET 0.000000 0.000000 0.000000
						}
					}
				}
			}
		}
	}
	JOINT RHipJoint
	{
		OFFSET 0.000000 0.000000 0.000000
		CHANNELS 3 Zrotation Yrotation Xrotation
		JOINT RightUpLeg
		{
			OFFSET -1.800000 -1.400000 0.085000
			CHANNELS 3 Zrotation Yrotation Xrotation
			JOINT RightLeg
			{
				OFFSET -2.215000 -6.000000 0.000000
				CHANNELS 3 Zrotation Yrotation Xrotation
				JOINT RightFoot
				{
					OFFSET -2.500000 -6.900000 0.000000
					CHANNELS 3 Zrotation Yrotation Xrotation
					JOINT RightToeBase
					{
						OFFSET -0.200000 -0.500000 1.950000
						CHANNELS 3 Zrotation Yrotation Xrotation
						End Site
						{
							OFFSET 0.000000 0.000000 0.000000
						}
					}
				}
			}
		}
	}
	JOINT LowerBack
	{
		OFFSET 0.000000 0.000000 0.000000
		CHANNELS 3 Zrotation Yrotation Xrotation
		JOINT Spine
		{
			OFFSET -0.087000 1.940000 -0.288900
			CHANNELS 3 Zrotation Yrotation Xrotation
			JOINT Spine1
			{
				OFFSET 0.000000 1.950000 0.060000
				CHANNELS 3 Zrotation Yrotation Xrotation
				JOINT Neck
				{
					OFFSET 0.000000 0.000000 0.000000
					CHANNELS 3 Zrotation Yrotation Xrotation
					JOINT Neck1
					{
						OFFSET 0.000000 1.600000 0.340000
						CHANNELS 3 Zrotation Yrotation Xrotation
						JOINT Head
						{
							OFFSET 0.000000 1.667000 -0.240000
							CHANNELS 3 Zrotation Yrotation Xrotation
							End Site
							{
								OFFSET 0.000000 0.000000 0.000000
							}
						}
					}
				}
				JOINT LeftShoulder
				{
					OFFSET 0.000000 0.000000 0.000000
					CHANNELS 3 Zrotation Yrotation Xrotation
					JOINT LeftArm
					{
						OFFSET 2.700000 1.550000 -0.730000
						CHANNELS 3 Zrotation Yrotation Xrotation
						JOINT LeftForeArm
						{
							OFFSET 5.450000 0.000000 0.000000
							CHANNELS 3 Zrotation Yrotation Xrotation
							JOINT LeftHand
							{
								OFFSET 3.450000 0.000000 0.000000
								CHANNELS 3 Zrotation Yrotation Xrotation
								JOINT LeftHandIndex1
								{
									OFFSET 0.750000 0.000000 0.000000
									CHANNELS 3 Zrotation Yrotation Xrotation
									End Site
									{
										OFFSET 0.000000 0.000000 0.000000
									}
								}
							}
						}
					}
				}
				JOINT RightShoulder
				{
					OFFSET 0.000000 0.000000 0.000000
					CHANNELS 3 Zrotation Yrotation Xrotation
					JOINT RightArm
					{
						OFFSET -2.700000 1.550000 -0.730000
						CHANNELS 3 Zrotation Yrotation Xrotation
						JOINT RightForeArm
						{
							OFFSET -5.450000 0.000000 0.000000
							CHANNELS 3 Zrotation Yrotation Xrotation
							JOINT RightHand
							{
								OFFSET -3.450000 0.000000 0.000000
								CHANNELS 3 Zrotation Yrotation Xrotation
								JOINT RightHandIndex1
								{
									OFFSET -0.750000 0.000000 0.000000
									CHANNELS 3 Zrotation Yrotation Xrotation
									End Site
									{
										OFFSET 0.000000 0.000000 0.000000
									}
								}
							}
						}
					}
				}
			}
		}
	}
}
MOTION
Frames: 8
Frame Time: 0.016667
-0.392520 16.521510 -4.020780 -3.638758 4.140995 7.578608 -15.403770 12.409154 4.476380 22.710273 -2.522307 -32.348847 -12.329190 9.600912 20.647558 -0.161144 5.728213 2.235553 0.355130 0.267640 0.344440 18.127418 -10.239647 2.389073 -21.143362 2.222214 -28.053368 5.554995 -7.348143 27.231346 -0.250617 -4.009938 2.724619 0.159400 -0.138630 0.093260 -3.108997 -2.039060 -8.332634 3.947300 -1.070775 16.187577 0.667504 -0.411596 4.876936 1.347368 -1.541000 -11.399211 -4.032624 2.947049 31.921741 0.387370 3.517160 -19.227300 -15.347711 -14.507451 5.834226 -49.560395 -6.449615 -4.504641 -37.577313 -25.597517 5.120882 -3.517412 3.144894 0.449330 -0.146810 0.235830 0.034510 13.088553 17.376083 7.340126 53.467253 12.953848 -4.333182 69.275746 56.443301 29.250107 2.506773 -1.674574 -0.061050 0.149250 -0.082450 -0.179170 
-0.410440 16.465700 -4.056140 -3.402116 3.979143 7.521890 -15.441069 12.327642 4.680547 23.400533 -2.510532 -33.561399 -12.988054 10.334024 22.346916 -0.108634 6.078970 2.092951 0.369880 0.283150 0.361200 18.107285 -10.189312 2.354738 -21.319763 2.344336 -28.164734 4.940119 -7.191899 27.707292 -0.271958 -3.971536 2.733297 0.153250 -0.174800 0.085320 -3.029547 -2.064070 -8.488650 3.177328 -0.792514 17.349109 0.920738 -0.130925 4.211663 1.283291 -1.547781 -11.901019 -4.248162 2.984848 33.557231 1.173030 3.459280 -20.170320 -15.616319 -16.182352 6.415046 -48.977397 -6.401428 -4.579807 -37.811596 -25.134361 4.924714 -3.469559 3.131255 0.486790 -0.187740 0.270930 0.031170 13.539245 19.347969 7.542230 52.837091 14.227231 -4.692929 62.360879 54.277679 24.532025 2.474179 -1.638701 -0.052390 0.149020 -0.094410 -0.184280 
-0.440480 16.376340 -4.094230 -3.273377 3.715650 7.393306 -15.520475 12.185257 5.043370 24.961570 -2.334407 -35.328964 -14.373621 11.650847 24.744960 -0.008090 6.745224 1.841187 0.382790 0.295150 0.372210 18.066666 -10.040415 2.287354 -21.383464 2.627558 -27.964667 4.779036 -7.169308 28.377220 -0.294825 -3.990357 2.727015 0.146980 -0.207530 0.078470 -2.865065 -2.206375 -8.736233 2.134970 -0.481931 19.045960 2.001229 0.105209 2.799025 1.016963 -1.962011 -12.397510 -5.290609 2.981020 35.422031 1.603780 3.155680 -20.709840 -18.079479 -18.279637 7.007320 -47.387905 -5.866551 -4.538914 -38.204043 -23.681875 4.453153 -3.426190 3.119933 0.515200 -0.223920 0.298580 0.029640 16.695382 22.165991 7.668990 51.107880 15.662600 -4.966899 51.822743 49.690191 17.850487 2.426650 -1.572604 -0.041880 0.145340 -0.104880 -0.186040 
-0.455580 16.290080 -4.135400 -3.188999 3.258113 7.349421 -15.589150 12.009494 5.431617 26.488447 -2.112880 -37.307984 -15.685235 13.087963 27.360487 0.111191 7.458843 1.585428 0.388280 0.296710 0.377680 18.039702 -9.878536 2.256442 -21.330583 3.107565 -28.217347 4.420806 -7.054987 29.299477 -0.309217 -4.016345 2.720274 0.137850 -0.232610 0.074130 -2.738553 -2.284360 -9.018400 1.602535 -0.100305 21.157032 2.700715 0.592533 0.715407 0.894330 -2.442851 -13.021500 -6.380236 2.917314 37.068856 1.690810 2.836260 -20.622710 -22.646808 -20.555090 7.560304 -44.955273 -4.648503 -4.587085 -37.910522 -21.927170 3.803210 -3.381317 3.119260 0.528850 -0.248520 0.313470 0.027390 21.671633 25.318677 7.706404 48.898340 17.230947 -4.393630 39.351681 40.472956 10.385516 2.385373 -1.471635 -0.031670 0.133600 -0.112390 -0.186630 
-0.471590 16.220590 -4.180570 -3.343166 3.342508 6.949581 -15.641039 11.853027 5.769041 27.965026 -1.853927 -38.996240 -16.562730 14.271935 29.608669 0.207900 8.049586 1.375266 0.403610 0.307440 0.402460 18.023714 -9.728428 2.256887 -21.133109 3.680108 -28.562262 4.252324 -7.194660 31.146950 -0.357889 -4.184856 2.660749 0.131800 -0.270720 0.071840 -2.659652 -2.348816 -9.291581 1.805463 0.167420 23.775160 2.920592 1.205364 -1.002898 1.002933 -2.585356 -14.073130 -6.894522 2.512352 39.254999 1.446580 2.435420 -21.151700 -27.008577 -22.944147 7.916951 -41.887508 -4.105924 -4.340334 -37.542075 -20.047734 3.200120 -3.318458 3.106664 0.557710 -0.280960 0.344260 0.020980 25.925358 28.236173 8.062329 46.748547 18.720218 -3.315919 29.149720 31.823595 5.810732 2.362306 -1.349437 -0.020710 0.128980 -0.123650 -0.194470 
-0.498890 16.163800 -4.219800 -3.463492 3.976778 6.316910 -15.665196 11.788809 5.973115 28.708087 -1.710549 -40.267475 -16.561901 14.942981 31.529796 0.268661 8.403975 1.246892 0.416300 0.313390 0.418060 18.016182 -9.614139 2.306016 -20.827782 4.372723 -29.190408 3.693915 -7.457074 34.335641 -0.432650 -4.546202 2.533426 0.124920 -0.307030 0.069770 -2.634893 -2.460179 -9.510632 2.644696 0.233930 26.437028 2.625851 1.892071 -2.326902 1.260671 -3.067405 -15.585591 -8.177632 2.205133 41.743044 1.109460 1.651850 -21.124020 -31.052776 -25.061103 7.980059 -38.836025 -4.057923 -3.897873 -36.693581 -18.014098 2.581602 -3.243225 3.097726 0.580050 -0.312390 0.368300 0.015300 29.618092 30.910342 8.843319 44.500470 20.119906 -1.880357 20.334119 23.312639 2.983960 2.383240 -1.219029 -0.007550 0.119800 -0.130810 -0.198150 
-0.531640 16.101610 -4.242550 -2.970244 4.988173 5.816595 -15.669669 11.708006 6.062434 28.635005 -2.053002 -41.404478 -16.251438 15.367465 33.515841 0.313113 8.625387 1.165606 0.434570 0.333710 0.439750 18.031284 -9.537908 2.375837 -20.900630 4.786637 -30.271740 2.647912 -7.785783 38.155923 -0.536381 -5.040581 2.356303 0.124170 -0.347220 0.067570 -2.662440 -2.470313 -9.629377 2.974285 0.165228 28.472569 1.559031 2.295306 -3.337030 1.608122 -2.756520 -16.326070 -7.945509 1.343868 43.404831 1.001870 0.808090 -21.822900 -33.592953 -25.946681 7.778393 -37.443142 -4.215390 -3.861246 -34.848307 -17.534018 2.362408 -3.173425 3.083640 0.601310 -0.343650 0.397910 0.008100 31.412112 31.715834 9.251260 43.914038 20.174164 -1.528992 15.876176 19.286274 1.944767 2.420906 -1.146022 0.008850 0.112490 -0.143230 -0.201980 
-0.577110 16.051820 -4.259830 -2.344457 6.669234 5.043068 -15.643737 11.660763 6.033105 28.013247 -2.571471 -42.146314 -15.319063 15.301196 35.090900 0.316947 8.653841 1.147072 0.450390 0.354500 0.456650 18.063194 -9.499691 2.473318 -21.524250 4.971226 -30.926966 2.684386 -8.646188 41.675523 -0.657077 -5.660728 2.133856 0.129310 -0.381210 0.065310 -2.760016 -2.440360 -9.685342 3.527789 -0.327325 30.146934 0.121217 2.280390 -4.027522 1.904427 -2.449095 -16.275618 -7.804873 0.743477 45.340744 0.472180 0.136880 -21.988850 -34.940132 -25.643294 7.545575 -36.081842 -3.473093 -4.249687 -34.024863 -18.088265 2.489535 -3.119672 3.081771 0.614660 -0.365700 0.422120 0.002030 31.975567 31.308720 9.144559 44.119705 19.260713 -1.973064 13.889339 18.226705 1.562581 2.437481 -1.120789 0.022150 0.108510 -0.151640 -0.205140 
